<svg xmlns="http://www.w3.org/2000/svg" width="290" viewBox="0 0 290 570">
    <path fill="black" d="M35 0h220a35 35 0 0 1 35 35v500a35 35 0 0 1-35 35h-220a35 35 0 0 1-35-35v-500a35 35 0 0 1 35-35" />
    <path fill="white" d="M30 45a15 15 0 0 0-15 15v460a15 15 0 0 0 15 15h230a15 15 0 0 0 15-15v-460a15 15 0 0 0-15-15h-230" />
    <path fill="#555" d="M40 25a6 6 0 1 0 12 0a6 6 0 1 0-12 0" />
    <path fill="#555" d="M95 15a3 3 0 1 0 0 6h100a3 3 0 1 0 0-6" />
    <path fill="#555" d="M95 550a3 3 0 1 0 0 6h100a3 3 0 1 0 0-6" />
    <path fill="#ddd" d="M30 45h230a15 15 0 0 1 15 15v30h-260v-30a15 15 0 0 1 15-15" />
    <path fill="#fff" d="M40 52.5a15 15 0 1 0 0 30h210a15 15 0 1 0 0-30" />
    <text text-anchor="middle" x="145" y="73" style="font-size:15;font-family:-apple-system,BlinkMacSystemFont,&quot;Segoe UI&quot;,Roboto,Helvetica,Arial,sans-serif,&quot;Apple Color Emoji&quot;,&quot;Segoe UI Emoji&quot;,&quot;Segoe UI Symbol&quot;;font-weight:600;">newpointe.org/checkin</text>
    <path fill="#f7941d" d="M15 90h260v430a15 15 0 0 1-15 15h-230a15 15 0 0 1-15-15" />
    <g transform="translate(47,200) scale(6,6)">
        <path fill="white" d="M0 0h33v33h-33"/>
        <path fill="black" d="M2 2h1v1h-1M3 2h1v1h-1M4 2h1v1h-1M5 2h1v1h-1M6 2h1v1h-1M7 2h1v1h-1M8 2h1v1h-1M13 2h1v1h-1M17 2h1v1h-1M24 2h1v1h-1M25 2h1v1h-1M26 2h1v1h-1M27 2h1v1h-1M28 2h1v1h-1M29 2h1v1h-1M30 2h1v1h-1M2 3h1v1h-1M8 3h1v1h-1M11 3h1v1h-1M12 3h1v1h-1M13 3h1v1h-1M15 3h1v1h-1M18 3h1v1h-1M19 3h1v1h-1M20 3h1v1h-1M24 3h1v1h-1M30 3h1v1h-1M2 4h1v1h-1M4 4h1v1h-1M5 4h1v1h-1M6 4h1v1h-1M8 4h1v1h-1M11 4h1v1h-1M13 4h1v1h-1M14 4h1v1h-1M16 4h1v1h-1M17 4h1v1h-1M21 4h1v1h-1M24 4h1v1h-1M26 4h1v1h-1M27 4h1v1h-1M28 4h1v1h-1M30 4h1v1h-1M2 5h1v1h-1M4 5h1v1h-1M5 5h1v1h-1M6 5h1v1h-1M8 5h1v1h-1M13 5h1v1h-1M14 5h1v1h-1M19 5h1v1h-1M20 5h1v1h-1M22 5h1v1h-1M24 5h1v1h-1M26 5h1v1h-1M27 5h1v1h-1M28 5h1v1h-1M30 5h1v1h-1M2 6h1v1h-1M4 6h1v1h-1M5 6h1v1h-1M6 6h1v1h-1M8 6h1v1h-1M10 6h1v1h-1M12 6h1v1h-1M13 6h1v1h-1M15 6h1v1h-1M18 6h1v1h-1M22 6h1v1h-1M24 6h1v1h-1M26 6h1v1h-1M27 6h1v1h-1M28 6h1v1h-1M30 6h1v1h-1M2 7h1v1h-1M8 7h1v1h-1M12 7h1v1h-1M14 7h1v1h-1M16 7h1v1h-1M17 7h1v1h-1M18 7h1v1h-1M19 7h1v1h-1M20 7h1v1h-1M21 7h1v1h-1M24 7h1v1h-1M30 7h1v1h-1M2 8h1v1h-1M3 8h1v1h-1M4 8h1v1h-1M5 8h1v1h-1M6 8h1v1h-1M7 8h1v1h-1M8 8h1v1h-1M10 8h1v1h-1M12 8h1v1h-1M14 8h1v1h-1M16 8h1v1h-1M18 8h1v1h-1M20 8h1v1h-1M22 8h1v1h-1M24 8h1v1h-1M25 8h1v1h-1M26 8h1v1h-1M27 8h1v1h-1M28 8h1v1h-1M29 8h1v1h-1M30 8h1v1h-1M10 9h1v1h-1M14 9h1v1h-1M15 9h1v1h-1M16 9h1v1h-1M17 9h1v1h-1M21 9h1v1h-1M22 9h1v1h-1M4 10h1v1h-1M5 10h1v1h-1M8 10h1v1h-1M9 10h1v1h-1M10 10h1v1h-1M11 10h1v1h-1M12 10h1v1h-1M17 10h1v1h-1M20 10h1v1h-1M23 10h1v1h-1M24 10h1v1h-1M26 10h1v1h-1M2 11h1v1h-1M4 11h1v1h-1M5 11h1v1h-1M7 11h1v1h-1M11 11h1v1h-1M12 11h1v1h-1M13 11h1v1h-1M14 11h1v1h-1M15 11h1v1h-1M17 11h1v1h-1M19 11h1v1h-1M20 11h1v1h-1M22 11h1v1h-1M24 11h1v1h-1M25 11h1v1h-1M26 11h1v1h-1M27 11h1v1h-1M29 11h1v1h-1M30 11h1v1h-1M5 12h1v1h-1M7 12h1v1h-1M8 12h1v1h-1M9 12h1v1h-1M11 12h1v1h-1M12 12h1v1h-1M13 12h1v1h-1M14 12h1v1h-1M15 12h1v1h-1M17 12h1v1h-1M18 12h1v1h-1M21 12h1v1h-1M22 12h1v1h-1M23 12h1v1h-1M25 12h1v1h-1M26 12h1v1h-1M30 12h1v1h-1M3 13h1v1h-1M6 13h1v1h-1M9 13h1v1h-1M11 13h1v1h-1M12 13h1v1h-1M15 13h1v1h-1M22 13h1v1h-1M24 13h1v1h-1M27 13h1v1h-1M28 13h1v1h-1M29 13h1v1h-1M30 13h1v1h-1M3 14h1v1h-1M5 14h1v1h-1M7 14h1v1h-1M8 14h1v1h-1M9 14h1v1h-1M13 14h1v1h-1M15 14h1v1h-1M19 14h1v1h-1M21 14h1v1h-1M23 14h1v1h-1M25 14h1v1h-1M26 14h1v1h-1M27 14h1v1h-1M28 14h1v1h-1M29 14h1v1h-1M3 15h1v1h-1M5 15h1v1h-1M7 15h1v1h-1M10 15h1v1h-1M12 15h1v1h-1M13 15h1v1h-1M14 15h1v1h-1M15 15h1v1h-1M16 15h1v1h-1M17 15h1v1h-1M20 15h1v1h-1M21 15h1v1h-1M22 15h1v1h-1M23 15h1v1h-1M26 15h1v1h-1M30 15h1v1h-1M2 16h1v1h-1M5 16h1v1h-1M6 16h1v1h-1M8 16h1v1h-1M10 16h1v1h-1M11 16h1v1h-1M13 16h1v1h-1M14 16h1v1h-1M15 16h1v1h-1M16 16h1v1h-1M17 16h1v1h-1M18 16h1v1h-1M20 16h1v1h-1M21 16h1v1h-1M22 16h1v1h-1M24 16h1v1h-1M25 16h1v1h-1M27 16h1v1h-1M28 16h1v1h-1M3 17h1v1h-1M5 17h1v1h-1M7 17h1v1h-1M11 17h1v1h-1M14 17h1v1h-1M15 17h1v1h-1M16 17h1v1h-1M17 17h1v1h-1M23 17h1v1h-1M24 17h1v1h-1M25 17h1v1h-1M27 17h1v1h-1M29 17h1v1h-1M4 18h1v1h-1M5 18h1v1h-1M8 18h1v1h-1M14 18h1v1h-1M16 18h1v1h-1M17 18h1v1h-1M18 18h1v1h-1M19 18h1v1h-1M22 18h1v1h-1M23 18h1v1h-1M24 18h1v1h-1M25 18h1v1h-1M30 18h1v1h-1M6 19h1v1h-1M7 19h1v1h-1M9 19h1v1h-1M10 19h1v1h-1M11 19h1v1h-1M12 19h1v1h-1M18 19h1v1h-1M21 19h1v1h-1M24 19h1v1h-1M26 19h1v1h-1M28 19h1v1h-1M29 19h1v1h-1M2 20h1v1h-1M4 20h1v1h-1M5 20h1v1h-1M6 20h1v1h-1M8 20h1v1h-1M9 20h1v1h-1M10 20h1v1h-1M11 20h1v1h-1M17 20h1v1h-1M23 20h1v1h-1M24 20h1v1h-1M28 20h1v1h-1M29 20h1v1h-1M30 20h1v1h-1M5 21h1v1h-1M7 21h1v1h-1M9 21h1v1h-1M12 21h1v1h-1M13 21h1v1h-1M17 21h1v1h-1M18 21h1v1h-1M19 21h1v1h-1M20 21h1v1h-1M22 21h1v1h-1M23 21h1v1h-1M25 21h1v1h-1M26 21h1v1h-1M27 21h1v1h-1M30 21h1v1h-1M3 22h1v1h-1M6 22h1v1h-1M8 22h1v1h-1M10 22h1v1h-1M16 22h1v1h-1M20 22h1v1h-1M21 22h1v1h-1M22 22h1v1h-1M23 22h1v1h-1M24 22h1v1h-1M25 22h1v1h-1M26 22h1v1h-1M29 22h1v1h-1M10 23h1v1h-1M11 23h1v1h-1M12 23h1v1h-1M14 23h1v1h-1M15 23h1v1h-1M18 23h1v1h-1M20 23h1v1h-1M21 23h1v1h-1M22 23h1v1h-1M26 23h1v1h-1M27 23h1v1h-1M29 23h1v1h-1M2 24h1v1h-1M3 24h1v1h-1M4 24h1v1h-1M5 24h1v1h-1M6 24h1v1h-1M7 24h1v1h-1M8 24h1v1h-1M10 24h1v1h-1M12 24h1v1h-1M14 24h1v1h-1M15 24h1v1h-1M16 24h1v1h-1M21 24h1v1h-1M22 24h1v1h-1M24 24h1v1h-1M26 24h1v1h-1M27 24h1v1h-1M28 24h1v1h-1M2 25h1v1h-1M8 25h1v1h-1M11 25h1v1h-1M12 25h1v1h-1M13 25h1v1h-1M16 25h1v1h-1M17 25h1v1h-1M18 25h1v1h-1M19 25h1v1h-1M20 25h1v1h-1M21 25h1v1h-1M22 25h1v1h-1M26 25h1v1h-1M2 26h1v1h-1M4 26h1v1h-1M5 26h1v1h-1M6 26h1v1h-1M8 26h1v1h-1M11 26h1v1h-1M12 26h1v1h-1M13 26h1v1h-1M14 26h1v1h-1M15 26h1v1h-1M16 26h1v1h-1M18 26h1v1h-1M20 26h1v1h-1M22 26h1v1h-1M23 26h1v1h-1M24 26h1v1h-1M25 26h1v1h-1M26 26h1v1h-1M29 26h1v1h-1M30 26h1v1h-1M2 27h1v1h-1M4 27h1v1h-1M5 27h1v1h-1M6 27h1v1h-1M8 27h1v1h-1M10 27h1v1h-1M11 27h1v1h-1M16 27h1v1h-1M17 27h1v1h-1M18 27h1v1h-1M19 27h1v1h-1M21 27h1v1h-1M24 27h1v1h-1M26 27h1v1h-1M28 27h1v1h-1M2 28h1v1h-1M4 28h1v1h-1M5 28h1v1h-1M6 28h1v1h-1M8 28h1v1h-1M10 28h1v1h-1M11 28h1v1h-1M12 28h1v1h-1M13 28h1v1h-1M15 28h1v1h-1M18 28h1v1h-1M19 28h1v1h-1M20 28h1v1h-1M23 28h1v1h-1M30 28h1v1h-1M2 29h1v1h-1M8 29h1v1h-1M11 29h1v1h-1M14 29h1v1h-1M15 29h1v1h-1M19 29h1v1h-1M20 29h1v1h-1M23 29h1v1h-1M24 29h1v1h-1M27 29h1v1h-1M29 29h1v1h-1M30 29h1v1h-1M2 30h1v1h-1M3 30h1v1h-1M4 30h1v1h-1M5 30h1v1h-1M6 30h1v1h-1M7 30h1v1h-1M8 30h1v1h-1M12 30h1v1h-1M14 30h1v1h-1M15 30h1v1h-1M18 30h1v1h-1M19 30h1v1h-1M20 30h1v1h-1M23 30h1v1h-1M24 30h1v1h-1"/>
    </g>
</svg>
