<svg xmlns="http://www.w3.org/2000/svg" xmlns:x="http://www.w3.org/1999/xlink" width="400" viewBox="0 0 400 500">
    <path fill="#444444" d="
        M 25 50
        h 350
        a 25 25 0 0 1 25 25
        v 350
        a 25 25 0 0 1 -25 25
        h -350
        a 25 25 0 0 1 -25 -25
        v -350
        a 25 25 0 0 1 25 -25
    "/>
    <path fill="#666666" d="
        M 25 50
        h 350
        a 25 25 0 0 1 25 25
        v 300
        a 25 25 0 0 1 -25 25
        h -350
        a 25 25 0 0 1 -25 -25
        v -300
        a 25 25 0 0 1 25 -25
    "/>
    <path fill="#888888" d="
        M 25 50
        h 350
        a 25 25 0 0 1 25 25
        v 150
        a 25 25 0 0 1 -25 25
        h -350
        a 25 25 0 0 1 -25 -25
        v -150
        a 25 25 0 0 1 25 -25
    "/>
    <path fill="#000000" d="
        M 60 0
        h 280
        a 25 25 0 0 1 25 25
        v 125
        a 25 25 0 0 1 -25 25
        h -280
        a 25 25 0 0 1 -25 -25
        v -125
        a 25 25 0 0 1 25 -25
    "/>
    <path fill="#000000" d="
        M 60 320
        a 10 10 0 0 0 10 10
        h 270
        a 10 10 0 0 0 10 -10
    "/>
    <rect fill="#ffffff" x="70" y="310" width="270" height="75">
        <animate attributeName="height" values="0;0;75;75;75;75" dur="4s" repeatCount="1" />
    </rect>
    <path fill="#000000" d="
        M 60 320
        a 10 10 0 0 1 10 -10
        h 270
        a 10 10 0 0 1 10 10
    "/>
</svg>
